<svg xmlns:xlink="http://www.w3.org/1999/xlink" xmlns="http://www.w3.org/2000/svg" width="3000" height="1256.183745583039" viewBox="0 0 566 237" fill="none">
<g clip-path="url(#clip0_1071_8888)">
<path fill-rule="evenodd" clip-rule="evenodd" d="M343.2 161.302C314.15 182.603 272.05 194 235.75 194C184.9 194 139.15 175.287 104.5 144.132C101.8 141.694 104.2 138.359 107.5 140.25C144.85 161.899 191.1 174.889 238.8 174.889C271 174.889 306.4 168.27 338.95 154.484C343.9 152.443 348 157.719 343.2 161.302Z" fill="white"/>
<path fill-rule="evenodd" clip-rule="evenodd" d="M355.25 147.518C351.55 142.79 330.7 145.278 321.35 146.373C318.5 146.722 318.05 144.233 320.65 142.491C337.25 130.846 364.5 134.23 367.7 138.112C370.9 142.043 366.85 169.217 351.25 182.206C348.85 184.197 346.55 183.152 347.65 180.514C351.15 171.805 359 152.296 355.25 147.518Z" fill="white"/>
<path fill-rule="evenodd" clip-rule="evenodd" d="M322 60.3743V49.077C322 47.3849 323.3 46.2402 324.85 46.2402H375.7C377.35 46.2402 378.65 47.4347 378.65 49.077V58.7817C378.65 60.424 377.25 62.5143 374.8 65.8985L348.5 103.324C358.3 103.075 368.65 104.518 377.5 109.495C379.5 110.64 380.05 112.282 380.2 113.875V125.918C380.2 127.561 378.35 129.502 376.45 128.506C360.8 120.344 340 119.449 322.7 128.606C320.95 129.551 319.1 127.66 319.1 126.018V114.571C319.1 112.73 319.1 109.595 320.95 106.808L351.5 63.211H324.95C323.3 63.211 322 62.0664 322 60.3743Z" fill="white"/>
<path fill-rule="evenodd" clip-rule="evenodd" d="M136.45 130.945H121C119.5 130.845 118.35 129.75 118.25 128.307V49.276C118.25 47.6834 119.6 46.4392 121.25 46.4392H135.7C137.2 46.489 138.4 47.6336 138.5 49.0769V59.4286H138.8C142.55 49.4253 149.65 44.7969 159.15 44.7969C168.85 44.7969 174.9 49.475 179.25 59.4286C183 49.4253 191.5 44.7969 200.6 44.7969C207.1 44.7969 214.2 47.4843 218.5 53.4565C223.4 60.1253 222.4 69.7803 222.4 78.2408V128.108C222.4 129.701 221.05 130.945 219.4 130.945H203.95C202.4 130.845 201.15 129.601 201.15 128.108V86.2036C201.15 82.8692 201.45 74.558 200.7 71.3729C199.55 66.0477 196.1 64.5547 191.6 64.5547C187.85 64.5547 183.95 67.0431 182.35 71.0245C180.75 75.0059 180.9 81.6748 180.9 86.1539V128.058C180.9 129.651 179.55 130.895 177.9 130.895H162.5C160.95 130.796 159.7 129.551 159.7 128.058V86.1539C159.7 77.345 161.15 64.3556 150.15 64.3556C139.05 64.3556 139.45 76.9966 139.45 86.1539V128.058C139.45 129.651 138.1 130.945 136.45 130.945Z" fill="white"/>
<path fill-rule="evenodd" clip-rule="evenodd" d="M422.5 44.7461C445.45 44.7461 457.9 64.3546 457.9 89.338C457.9 113.426 444.15 132.586 422.5 132.586C399.95 132.586 387.7 112.978 387.7 88.4919C387.65 63.9067 400.1 44.7461 422.5 44.7461ZM422.6 60.9206C411.2 60.9206 410.5 76.3486 410.5 86.0036C410.5 95.6585 410.35 116.312 422.5 116.312C434.5 116.312 435.05 99.6897 435.05 89.5371C435.05 82.8682 434.75 74.9054 432.75 68.5848C431 63.0606 427.55 60.9206 422.6 60.9206Z" fill="white"/>
<path fill-rule="evenodd" clip-rule="evenodd" d="M487.65 130.944H472.25C470.7 130.844 469.45 129.6 469.45 128.107V49.0261C469.6 47.5829 470.85 46.4382 472.45 46.4382H486.8C488.15 46.488 489.25 47.4336 489.55 48.628V60.7215H489.85C494.2 49.9219 500.25 44.7461 510.95 44.7461C517.9 44.7461 524.65 47.2345 529 54.0527C533.05 60.3732 533.05 71.0235 533.05 78.6379V128.406C532.9 129.799 531.6 130.894 530.05 130.894H514.55C513.15 130.795 511.95 129.749 511.8 128.406V85.5059C511.8 76.8463 512.8 64.2053 502.1 64.2053C498.35 64.2053 494.85 66.6937 493.15 70.5258C490.95 75.3533 490.7 80.1807 490.7 85.5059V128.057C490.65 129.65 489.3 130.944 487.65 130.944Z" fill="white"/>
<path fill-rule="evenodd" clip-rule="evenodd" d="M281.45 93.1705C281.45 99.1924 281.6 104.169 278.55 109.494C276.1 113.824 272.15 116.512 267.85 116.512C261.9 116.512 258.45 111.983 258.45 105.364C258.45 92.225 270.25 89.8361 281.5 89.8361L281.45 93.1705ZM297.05 130.695C296.05 131.591 294.55 131.691 293.4 131.044C288.25 126.814 287.35 124.823 284.5 120.792C276 129.401 270 131.989 259 131.989C245.95 131.989 235.85 123.977 235.85 108.001C235.85 95.5096 242.65 86.9993 252.35 82.8188C260.75 79.136 272.5 78.4891 281.45 77.4439V75.4532C281.45 71.7704 281.75 67.4406 279.55 64.3052C277.7 61.4685 274.05 60.2741 270.85 60.2741C264.95 60.2741 259.7 63.3099 258.4 69.5309C258.15 70.9244 257.1 72.2681 255.7 72.3676L240.7 70.7751C239.45 70.4764 238 69.4811 238.4 67.5401C241.9 49.4745 258.35 44 273.05 44C280.6 44 290.4 45.9907 296.35 51.6642C303.9 58.6815 303.15 67.9881 303.15 78.1407V102.129C303.15 109.345 306.15 112.53 309 116.412C310 117.806 310.2 119.448 308.95 120.493C305.8 123.18 300.2 128.058 297.05 130.695Z" fill="white"/>
<path fill-rule="evenodd" clip-rule="evenodd" d="M78.6 93.1705C78.6 99.1924 78.75 104.169 75.7 109.494C73.25 113.824 69.35 116.512 65 116.512C59.05 116.512 55.6 111.983 55.6 105.364C55.6 92.225 67.4 89.8361 78.6 89.8361V93.1705ZM94.2 130.695C93.2 131.591 91.7 131.691 90.55 131.044C85.4 126.814 84.5 124.823 81.65 120.792C73.15 129.401 67.15 131.989 56.15 131.989C43.15 131.989 33 123.977 33 108.001C33 95.5096 39.8 86.9993 49.5 82.8188C57.9 79.136 69.65 78.4891 78.6 77.4439V75.4532C78.6 71.7704 78.9 67.4406 76.75 64.3052C74.85 61.4685 71.25 60.2741 68.05 60.2741C62.15 60.2741 56.9 63.3099 55.6 69.5309C55.35 70.9244 54.3 72.2681 52.9 72.3676L37.9 70.7751C36.65 70.4764 35.25 69.4811 35.6 67.5401C39.05 49.4745 55.5 44 70.2 44C77.75 44 87.55 45.9907 93.5 51.6642C101.05 58.6815 100.3 67.9881 100.3 78.1407V102.129C100.3 109.345 103.3 112.53 106.15 116.412C107.15 117.806 107.35 119.448 106.1 120.493C102.95 123.18 97.35 128.058 94.2 130.695Z" fill="white"/>
</g>
<defs>
<clipPath id="clip0_1071_8888">
<rect width="500" height="150" fill="white" transform="translate(33 44)"/>
</clipPath>
</defs>
</svg>